<svg width="885" height="657" viewBox="0 0 885 657" fill="none" xmlns="http://www.w3.org/2000/svg">
<path d="M0 0H599V434.06H218.15L177 508L133.77 434.06H0V0Z" fill="url(#paint0_linear)"/>
<path d="M7.56982 8.33002H589.48V427.95H211.79L176.81 503.3L137.52 427.95H7.56982V8.33002Z" fill="#F5F5F5"/>
<path opacity="0.3" d="M81.1799 152.65L514.71 152.65V134.1L81.1799 134.1V152.65Z" fill="#00C6E0"/>
<path opacity="0.3" d="M81.1799 193.22L514.71 193.22V174.67L81.1799 174.67V193.22Z" fill="#00C6E0"/>
<path opacity="0.3" d="M81.1799 233.79L514.71 233.79V215.24L81.1799 215.24V233.79Z" fill="#00C6E0"/>
<path opacity="0.3" d="M81.1799 274.36L514.71 274.36V255.81L81.1799 255.81V274.36Z" fill="#00C6E0"/>
<path d="M885 150H293V583.21L675 583L711 657L752.79 583.21H885V150Z" fill="url(#paint1_linear)"/>
<path d="M880.43 156.7H298.52V576.32H676.21L711.19 651.67L750.48 576.32H880.43V156.7Z" fill="white"/>
<path d="M483.99 408.82C507.357 408.82 526.3 389.877 526.3 366.51C526.3 343.143 507.357 324.2 483.99 324.2C460.623 324.2 441.68 343.143 441.68 366.51C441.68 389.877 460.623 408.82 483.99 408.82Z" fill="url(#paint2_linear)"/>
<path d="M589.48 408.82C612.847 408.82 631.79 389.877 631.79 366.51C631.79 343.143 612.847 324.2 589.48 324.2C566.113 324.2 547.17 343.143 547.17 366.51C547.17 389.877 566.113 408.82 589.48 408.82Z" fill="url(#paint3_linear)"/>
<path d="M694.96 408.82C718.327 408.82 737.27 389.877 737.27 366.51C737.27 343.143 718.327 324.2 694.96 324.2C671.593 324.2 652.65 343.143 652.65 366.51C652.65 389.877 671.593 408.82 694.96 408.82Z" fill="url(#paint4_linear)"/>
<path d="M483.99 404.76C505.115 404.76 522.24 387.635 522.24 366.51C522.24 345.385 505.115 328.26 483.99 328.26C462.865 328.26 445.74 345.385 445.74 366.51C445.74 387.635 462.865 404.76 483.99 404.76Z" fill="#006C7A"/>
<path opacity="0.6" d="M589.48 404.76C610.605 404.76 627.73 387.635 627.73 366.51C627.73 345.385 610.605 328.26 589.48 328.26C568.355 328.26 551.23 345.385 551.23 366.51C551.23 387.635 568.355 404.76 589.48 404.76Z" fill="#0094A8"/>
<path opacity="0.3" d="M694.96 404.76C716.085 404.76 733.21 387.635 733.21 366.51C733.21 345.385 716.085 328.26 694.96 328.26C673.835 328.26 656.71 345.385 656.71 366.51C656.71 387.635 673.835 404.76 694.96 404.76Z" fill="#00C6E0"/>
<defs>
<linearGradient id="paint0_linear" x1="299.5" y1="508" x2="299.5" y2="0" gradientUnits="userSpaceOnUse">
<stop stop-color="#808080" stop-opacity="0.25"/>
<stop offset="0.54" stop-color="#808080" stop-opacity="0.12"/>
<stop offset="1" stop-color="#808080" stop-opacity="0.1"/>
</linearGradient>
<linearGradient id="paint1_linear" x1="348981" y1="333249" x2="348981" y2="76200" gradientUnits="userSpaceOnUse">
<stop stop-color="#808080" stop-opacity="0.25"/>
<stop offset="0.54" stop-color="#808080" stop-opacity="0.12"/>
<stop offset="1" stop-color="#808080" stop-opacity="0.1"/>
</linearGradient>
<linearGradient id="paint2_linear" x1="41396.9" y1="34918.5" x2="41396.9" y2="27758" gradientUnits="userSpaceOnUse">
<stop stop-color="#808080" stop-opacity="0.25"/>
<stop offset="0.54" stop-color="#808080" stop-opacity="0.12"/>
<stop offset="1" stop-color="#808080" stop-opacity="0.1"/>
</linearGradient>
<linearGradient id="paint3_linear" x1="50429" y1="34918.5" x2="50429" y2="27758" gradientUnits="userSpaceOnUse">
<stop stop-color="#808080" stop-opacity="0.25"/>
<stop offset="0.54" stop-color="#808080" stop-opacity="0.12"/>
<stop offset="1" stop-color="#808080" stop-opacity="0.1"/>
</linearGradient>
<linearGradient id="paint4_linear" x1="59460.2" y1="34918.5" x2="59460.2" y2="27758" gradientUnits="userSpaceOnUse">
<stop stop-color="#808080" stop-opacity="0.25"/>
<stop offset="0.54" stop-color="#808080" stop-opacity="0.12"/>
<stop offset="1" stop-color="#808080" stop-opacity="0.1"/>
</linearGradient>
</defs>
</svg>
